<?xml version="1.0" encoding="UTF-8" standalone="no"?>
<!-- Created with Inkscape (http://www.inkscape.org/) -->

<svg
   version="1.1"
   id="svg1"
   width="512"
   height="512"
   viewBox="0 0 512 512"
   sodipodi:docname="Html-cover.svg"
   inkscape:version="1.3.2 (091e20e, 2023-11-25, custom)"
   xmlns:inkscape="http://www.inkscape.org/namespaces/inkscape"
   xmlns:sodipodi="http://sodipodi.sourceforge.net/DTD/sodipodi-0.dtd"
   xmlns="http://www.w3.org/2000/svg"
   xmlns:svg="http://www.w3.org/2000/svg">
  <defs
     id="defs1" />
  <sodipodi:namedview
     id="namedview1"
     pagecolor="#505050"
     bordercolor="#eeeeee"
     borderopacity="1"
     inkscape:showpageshadow="0"
     inkscape:pageopacity="0"
     inkscape:pagecheckerboard="0"
     inkscape:deskcolor="#505050"
     inkscape:zoom="1.1338568"
     inkscape:cx="181.23982"
     inkscape:cy="246.5038"
     inkscape:window-width="1920"
     inkscape:window-height="1017"
     inkscape:window-x="-8"
     inkscape:window-y="-8"
     inkscape:window-maximized="1"
     inkscape:current-layer="g1" />
  <g
     inkscape:groupmode="layer"
     inkscape:label="Image"
     id="g1">
    <path
       style="opacity:0.97;fill:#ff7318;fill-opacity:0.918575;stroke-width:0.573878"
       d="m 245.05913,350.63938 c -3.31415,-0.99579 -7.18782,-2.24997 -8.60818,-2.78705 -1.42034,-0.53709 -4.90664,-1.62755 -7.74734,-2.42326 -2.84071,-0.7957 -5.6814,-1.70369 -6.31267,-2.01776 -0.63126,-0.31406 -4.50494,-1.57749 -8.60817,-2.80763 -17.08508,-5.12205 -21.28099,-6.43286 -22.17262,-6.92673 -0.51652,-0.2861 -3.74458,-1.32011 -7.17347,-2.29783 -3.4289,-0.97771 -7.13821,-2.14684 -8.24293,-2.59808 -1.10471,-0.45124 -4.84927,-1.61443 -8.32123,-2.58484 -3.47196,-0.97042 -6.82915,-2.02105 -7.46041,-2.33474 -0.63127,-0.31369 -4.11757,-1.44924 -7.74736,-2.52345 -16.2745,-4.81635 -17.90815,-5.9135 -18.97214,-12.74164 -0.28662,-1.83939 -1.4273,-16.12747 -2.53485,-31.7513 -1.10755,-15.62384 -2.26673,-29.6982 -2.57597,-31.27637 -0.30922,-1.57816 -0.70026,-5.19358 -0.86896,-8.03429 -0.87783,-14.78154 -3.79293,-54.71017 -4.08501,-55.95311 -0.33231,-1.4141 -2.97592,-35.58775 -6.79231,-87.803351 -1.07272,-14.67693 -2.23911,-29.39691 -2.59198,-32.71106 -1.20595,-11.326188 -1.94259,-22.684515 -1.56799,-24.177028 0.55372,-2.206186 4.49349,-5.997201 6.68884,-6.436272 1.0343,-0.206863 61.62679,-0.376114 134.64997,-0.376114 147.94539,0 135.79382,-0.347308 138.78339,3.966641 1.85555,2.677556 2.62065,5.244103 2.28445,7.66326 -0.14189,1.020926 -1.02415,13.348151 -1.96059,27.393813 -0.93645,14.04566 -1.99962,27.861791 -2.36258,30.702491 -0.36298,2.84068 -1.6535,18.59364 -2.86784,35.00655 -3.29044,44.47332 -6.68494,88.12708 -7.40767,95.26377 -0.35161,3.47196 -1.52311,18.32106 -2.60335,32.99799 -3.12901,42.51322 -3.61874,47.52136 -4.89079,50.01477 -1.55202,3.04223 -3.64594,4.0153 -17.74565,8.24659 -3.62977,1.08928 -7.11608,2.22654 -7.74735,2.52724 -1.16682,0.55578 -11.31692,3.71185 -23.2157,7.21867 -3.61529,1.0655 -7.10159,2.19805 -7.74736,2.51679 -0.64576,0.31874 -4.14393,1.47544 -7.77371,2.57045 -18.0436,5.44324 -22.16534,6.73299 -22.98697,7.19292 -0.49096,0.27483 -3.84814,1.3333 -7.46042,2.35215 -3.61226,1.01886 -7.0486,2.10558 -7.63631,2.41495 -2.43583,1.28221 -14.82624,4.46501 -17.11695,4.39693 -1.36076,-0.0404 -5.18567,-0.88827 -8.49982,-1.88407 z m 10.57312,-55.35963 c 0.17109,-0.27682 1.54211,-0.81063 3.04672,-1.18626 2.54963,-0.63652 14.07861,-4.29327 25.40387,-8.05756 2.68288,-0.89174 9.52637,-3.0928 15.20777,-4.89124 5.6814,-1.79845 13.29963,-4.24885 16.92941,-5.44532 3.62977,-1.19647 8.23735,-2.63095 10.23903,-3.18773 2.0017,-0.55676 3.7298,-1.29442 3.84022,-1.63924 0.11043,-0.34481 0.62593,-7.07991 1.14555,-14.9669 0.5196,-7.88698 1.06237,-14.53029 1.20613,-14.76289 0.14377,-0.23262 1.29249,-14.56836 2.55274,-31.85722 1.26024,-17.28887 2.51971,-33.62938 2.79883,-36.31226 0.2791,-2.68288 0.52801,-6.36288 0.55311,-8.17777 l 0.0456,-3.2998 h -65.04657 -65.04657 l -1.00943,-10.76021 c -0.55518,-5.91812 -1.13853,-10.97291 -1.29634,-11.23288 -0.1578,-0.25997 -0.59385,-3.81084 -0.96898,-7.89084 l -0.68205,-7.41814 h 68.45968 c 37.65282,0 68.46117,-0.19369 68.46299,-0.43041 0.002,-0.23673 0.26366,-1.97987 0.58186,-3.87367 0.41071,-2.44448 2.85808,-29.092341 2.85808,-31.119861 0,-0.0861 -40.93185,-0.1565 -90.95967,-0.1565 h -90.95971 v 1.76702 c 0,4.176031 3.45391,52.204671 3.97925,55.333851 0.31794,1.8938 1.24975,14.03132 2.07068,26.97227 0.82093,12.94095 1.72683,24.11006 2.01312,24.82023 l 0.52051,1.29123 h 63.49977 63.49977 l -0.3505,2.72592 c -0.19276,1.49925 -0.8932,11.11888 -1.5565,21.37695 -0.66332,10.25807 -1.29433,18.73937 -1.40226,18.84734 -0.19323,0.19328 -6.28865,1.83181 -23.81088,6.40068 -4.89231,1.27565 -9.28247,2.53294 -9.75592,2.79396 -2.53481,1.39752 -7.00994,1.92478 -10.51318,1.23868 -1.95076,-0.38205 -3.82167,-0.92042 -4.15759,-1.19637 -0.3359,-0.27595 -4.20958,-1.39032 -8.60817,-2.47638 -4.39858,-1.08605 -8.71475,-2.25267 -9.59149,-2.5925 -0.87673,-0.33981 -3.71743,-1.13847 -6.31266,-1.77481 -2.59523,-0.63633 -5.68701,-1.4251 -6.87064,-1.75282 l -2.15203,-0.59587 v -14.03698 -14.03698 h -20.37264 -20.37268 l -4.7e-4,2.43898 c -0.002,5.22753 3.51917,53.58153 3.9824,54.70285 0.37327,0.90353 1.70996,1.50504 5.57153,2.5072 2.79424,0.72517 5.85518,1.67069 6.80207,2.10115 1.59598,0.72556 5.25122,1.87103 23.52901,7.37348 3.78759,1.14024 7.30914,2.30721 7.82566,2.59325 0.51653,0.28604 3.74459,1.32002 7.17348,2.29773 3.4289,0.97771 7.13821,2.14685 8.24292,2.59809 1.10472,0.45124 4.84927,1.60928 8.32124,2.57342 3.47196,0.96413 6.70002,1.99101 7.17347,2.28195 1.11214,0.68341 3.85855,0.74347 4.26046,0.0932 z"
       id="path7" />
  </g>
</svg>
