<?xml version="1.0" encoding="UTF-8" standalone="no"?>
<!-- Created with Inkscape (http://www.inkscape.org/) -->

<svg
   version="1.1"
   id="svg1"
   width="755"
   height="410"
   viewBox="0 0 755 410"
   sodipodi:docname="JavaScript.svg"
   inkscape:version="1.3.2 (091e20e, 2023-11-25, custom)"
   xmlns:inkscape="http://www.inkscape.org/namespaces/inkscape"
   xmlns:sodipodi="http://sodipodi.sourceforge.net/DTD/sodipodi-0.dtd"
   xmlns="http://www.w3.org/2000/svg"
   xmlns:svg="http://www.w3.org/2000/svg">
  <defs
     id="defs1">
    <clipPath
       clipPathUnits="userSpaceOnUse"
       id="clipPath8">
      <rect
         style="fill:#253238;fill-opacity:1;stroke-width:2.15789"
         id="rect9"
         width="2064.729"
         height="874.20282"
         x="-607.25677"
         y="-27.944817"
         ry="10.326404" />
    </clipPath>
    <clipPath
       clipPathUnits="userSpaceOnUse"
       id="clipPath12">
      <rect
         style="fill:#253238;fill-opacity:1"
         id="rect12"
         width="1796.3802"
         height="754.26648"
         x="-458.42343"
         y="748.93597"
         ry="4.7854066" />
    </clipPath>
  </defs>
  <sodipodi:namedview
     id="namedview1"
     pagecolor="#505050"
     bordercolor="#eeeeee"
     borderopacity="1"
     inkscape:showpageshadow="0"
     inkscape:pageopacity="0"
     inkscape:pagecheckerboard="0"
     inkscape:deskcolor="#505050"
     inkscape:zoom="0.53061147"
     inkscape:cx="450.42373"
     inkscape:cy="251.59652"
     inkscape:window-width="1920"
     inkscape:window-height="1017"
     inkscape:window-x="-8"
     inkscape:window-y="-8"
     inkscape:window-maximized="1"
     inkscape:current-layer="g1"
     inkscape:export-bgcolor="#ffffff00"
     showguides="false"
     showgrid="true">
    <sodipodi:guide
       position="52.769308,609.42166"
       orientation="0,-1"
       id="guide1"
       inkscape:locked="false" />
    <inkscape:grid
       id="grid2"
       units="px"
       originx="0"
       originy="0"
       spacingx="1"
       spacingy="1"
       empcolor="#0099e5"
       empopacity="0.30196078"
       color="#0099e5"
       opacity="0.14901961"
       empspacing="5"
       dotted="false"
       gridanglex="30"
       gridanglez="30"
       visible="true" />
  </sodipodi:namedview>
  <g
     inkscape:groupmode="layer"
     inkscape:label="Image"
     id="g1">
    <path
       style="fill:#ffffff;fill-opacity:1;stroke-width:0.942309"
       d="m 88.346292,-161.97307 c -15.392923,-3.29819 -29.790661,-13.98996 -37.623959,-27.93956 -5.148868,-9.16913 -6.072856,-13.24979 -6.028992,-26.6262 0.03426,-10.4486 0.358578,-13.08144 2.205402,-17.90387 3.948978,-10.31158 9.711538,-17.74916 19.325037,-24.94233 11.038209,-8.25919 20.867032,-11.34094 36.12082,-11.32539 14.86976,0.0152 22.39161,2.12926 33.65399,9.45885 3.14575,2.04726 6.00801,3.72229 6.36059,3.72229 0.35256,0 0.64103,-9.69571 0.64103,-21.54603 0,-20.37069 0.10654,-21.68146 1.95301,-24.02888 1.67547,-2.13 2.6701,-2.48285 6.99893,-2.48285 4.35805,0 5.31838,0.34639 7.04468,2.54103 1.98873,2.52825 1.99719,2.79007 1.68306,52.06257 -0.30139,47.27356 -0.40295,49.73543 -2.23724,54.2331 -7.39958,18.14372 -23.66723,31.04584 -44.46482,35.26571 -6.64329,1.34793 -18.078053,1.13003 -25.631538,-0.48844 z m 25.760288,-17.8154 c 18.62612,-4.85148 31.55383,-24.63236 27.95014,-42.76691 -5.0537,-25.43128 -35.28735,-38.90974 -59.364286,-26.46517 -5.997632,3.09998 -12.592897,10.2597 -16.666104,18.09247 -2.357638,4.53374 -2.582504,5.8687 -2.582504,15.33156 0,9.54468 0.211427,10.77232 2.670267,15.50474 4.843371,9.32183 16.370072,18.4508 26.266624,20.80277 5.17496,1.22986 16.046063,0.97995 21.725863,-0.49946 z"
       id="path17" />
    <path
       style="fill:#ffffff;fill-opacity:1;stroke-width:0.942309"
       d="m 218.38494,-161.97307 c -25.6901,-5.50454 -44.28853,-28.55439 -44.28853,-54.88871 0,-17.25463 8.77924,-33.46462 23.55271,-43.48773 11.31491,-7.67663 20.41951,-10.37209 35.03442,-10.37209 18.4502,0 31.56765,5.13411 42.7872,16.74673 8.17436,8.46075 12.3039,16.15091 15.0427,28.01295 1.67512,7.25519 1.68848,12.46141 0.0539,21.03227 -2.00018,10.48815 -6.28766,18.30133 -14.62049,26.64328 -14.76698,14.78315 -36.26654,20.87622 -57.56196,16.3133 z m 32.07955,-19.96621 c 13.08078,-6.24288 22.5734,-20.8021 22.55892,-34.59955 -0.0125,-11.9167 -5.86706,-22.1591 -16.97966,-29.70552 -10.90586,-7.40603 -23.2571,-9.35882 -35.71933,-5.64741 -15.77517,4.69805 -27.38183,19.87934 -27.38183,35.81493 0,13.02946 5.48732,22.71438 17.51956,30.92143 7.76448,5.29605 13.75494,6.85033 24.89795,6.45999 7.70819,-0.27002 9.82647,-0.72495 15.10439,-3.24387 z"
       id="path18" />
    <path
       style="fill:#ffffff;fill-opacity:1;stroke-width:0.942309"
       d="m 346.69291,-162.41795 c -16.61926,-4.29104 -28.75275,-13.91154 -36.0056,-28.5484 -11.72506,-23.66214 -7.58763,-47.54482 11.3304,-65.40311 4.97712,-4.6983 18.0453,-11.60729 25.46571,-13.46339 6.79558,-1.69981 24.56103,-1.71029 30.6229,-0.0181 7.87076,2.19719 17.1123,7.23208 17.76801,9.68019 1.15739,4.32123 0.58705,6.61552 -2.31956,9.3307 -3.04208,2.84173 -6.46185,3.45638 -10.45699,1.87949 -1.19049,-0.46989 -4.36333,-1.74201 -7.05076,-2.82693 -6.85119,-2.76584 -20.69527,-2.77547 -28.0612,-0.0195 -15.27148,5.71379 -25.80881,22.00202 -24.77884,38.30224 1.58661,25.10972 30.41128,41.82412 55.46956,32.16482 7.37371,-2.84237 9.66599,-3.06255 13.40618,-1.28772 3.70642,1.75881 4.99714,5.03603 3.91818,9.94851 -2.03353,9.2586 -30.36009,15.15347 -49.30799,10.26118 z"
       id="path19" />
    <path
       style="fill:#ffffff;fill-opacity:1;stroke-width:0.942309"
       d="m 471.75662,-163.71052 c -2.39242,-1.75579 -8.11695,-6.76807 -12.72118,-11.13838 -14.8203,-14.06738 -18.72222,-17.60616 -19.44345,-17.63388 -0.3887,-0.0149 -0.70673,5.29438 -0.70673,11.79849 0,16.04787 -1.7306,19.27054 -10.34845,19.27054 -2.98122,0 -4.4097,-0.57569 -6.18695,-2.49337 l -2.31078,-2.49338 v -66.95035 -66.95036 l 2.53207,-2.64292 c 2.72035,-2.83944 8.04637,-3.60382 11.65476,-1.67266 4.36718,2.33724 4.65935,4.60744 4.65935,36.20417 0,16.35124 0.31803,29.7173 0.70673,29.70236 0.71767,-0.0276 3.65511,-2.69661 20.49522,-18.62234 12.41197,-11.73803 15.50447,-13.78371 19.65892,-13.00433 4.32334,0.81107 8.1392,4.74199 8.1392,8.38462 0,3.02441 -4.32908,7.62091 -32.74529,34.7681 -6.34878,6.06525 -11.54324,11.31135 -11.54324,11.658 0,0.34666 3.89898,4.289 8.66438,8.76076 4.76541,4.47177 14.73511,14.06704 22.15488,21.32282 15.33592,14.99697 15.88067,16.15209 10.26542,21.76734 -4.14043,4.14042 -7.24673,4.13196 -12.92486,-0.0352 z"
       id="path20" />
    <path
       style="fill:#ffffff;fill-opacity:1;stroke-width:0.942309"
       d="m 548.19311,-161.50774 c -19.85222,-5.21468 -30.81393,-12.46663 -39.21277,-25.94201 -6.09055,-9.77189 -9.76209,-20.71234 -9.76209,-29.08908 0,-7.39638 3.3992,-18.64126 8.02335,-26.542 6.10269,-10.42695 18.23961,-20.05705 32.01113,-25.39938 5.8419,-2.26623 7.91319,-2.56327 18.36347,-2.63345 13.19019,-0.0886 19.45308,1.43148 31.14549,7.55927 10.51272,5.50954 21.62382,17.78834 21.62382,23.89634 0,4.26278 -2.0466,6.78879 -11.65573,14.38605 -7.49583,5.92642 -22.54743,18.21751 -25.6959,20.98319 -0.59001,0.51827 -1.8718,1.57836 -2.84844,2.35577 -22.82194,18.1663 -25.43147,20.43269 -24.54593,21.31822 1.28156,1.28156 11.5264,2.00543 18.16608,1.28356 3.59248,-0.39058 9.71208,-1.84432 13.5991,-3.23054 6.53941,-2.33214 7.28501,-2.4171 9.9817,-1.13745 1.65455,0.78512 3.6044,2.83704 4.51061,4.74672 2.7137,5.71871 -0.3898,9.66111 -10.92811,13.88208 -10.77666,4.31643 -24.30721,5.78719 -32.77578,3.56271 z m -2.25529,-43.95896 c 19.58762,-15.80747 23.83996,-19.26939 25.21696,-20.52963 0.58697,-0.53719 4.2475,-3.48998 8.13453,-6.56176 8.04669,-6.359 9.42309,-7.60633 9.42309,-8.53941 0,-1.50618 -5.62013,-5.52022 -12.25002,-8.74928 -6.19069,-3.01515 -8.10127,-3.48337 -15.40299,-3.77482 -9.08043,-0.36244 -14.40501,0.7022 -21.74031,4.34693 -6.07713,3.01957 -14.08311,10.66832 -16.33707,15.60809 -4.15291,9.10149 -4.97771,20.49795 -2.16794,29.95484 1.22422,4.1204 6.19577,11.20179 7.86431,11.20179 0.66234,0 8.42909,-5.83054 17.25944,-12.95675 z"
       id="path21" />
    <path
       style="fill:#ffffff;fill-opacity:1;stroke-width:0.942309"
       d="m 634.24463,-162.3057 c -4.11044,-2.50634 -4.34746,-4.85907 -3.81807,-37.89941 0.36289,-22.64874 0.72396,-28.3773 1.99901,-31.71551 6.31567,-16.53507 19.76977,-29.63269 36.3831,-35.41911 5.8948,-2.05315 18.81166,-3.83135 22.00644,-3.02951 5.84663,1.46741 8.93652,7.84414 6.24124,12.88032 -1.47202,2.75048 -3.95556,3.6926 -12.44762,4.72197 -14.37152,1.74204 -26.27739,9.88073 -32.31999,22.09348 l -2.79741,5.65386 -0.5449,30.15389 c -0.2997,16.58464 -0.61773,30.26613 -0.70673,30.40332 -0.089,0.13718 -1.53996,1.08968 -3.22433,2.11667 -3.86009,2.35354 -6.95764,2.36505 -10.77074,0.04 z"
       id="path22" />
    <text
       xml:space="preserve"
       style="font-size:133.944px;fill:#ffffff;fill-opacity:1;stroke-width:0.697627"
       x="111.70082"
       y="244.42947"
       id="text22"><tspan
         sodipodi:role="line"
         id="tspan22"
         x="111.70082"
         y="244.42947"
         style="font-style:normal;font-variant:normal;font-weight:normal;font-stretch:normal;font-size:133.944px;font-family:sans-serif;-inkscape-font-specification:sans-serif;stroke-width:0.697627">JavaScript</tspan></text>
  </g>
</svg>
